# xmcd
#
# Track frame offsets: 
#        150
#        7314
#        17759
#        31664
#        46924
#        64502
#        80213
#        95373
#        111357
#        135664
#        152639
#        172320
#        173494
#        190146
#        212655
#        233379
#        258959
#        260132
#        289159
#
# Disc length: 4440 seconds
#
# Revision: 0
# Processed by: cddbd v1.5.2PL0 Copyright (c) Steve Scherf et al.
# Submitted via: ExactAudioCopy v0.99pb5
#
DISCID=04115613
DTITLE=Various Artist - Chi-sound soul survey 1976-1982 disc 1
DYEAR=2000
DGENRE=Soul
TTITLE0=Windy City - Windy City (Theme)
TTITLE1=Windy City - (So You Think) Somethin's Missin'
TTITLE2=Windy City - Win Or Lose
TTITLE3=Windy City - Feeling Like I Don't Belong
TTITLE4=Windy City - Let Me Ride
TTITLE5=Windy City - Good Guys Don't Always Win
TTITLE6=Windy City - Fool Or Your Man
TTITLE7=Windy City - I Got Mine
TTITLE8=Windy City - If By Chance
TTITLE9=Windy City - Just For You
TTITLE10=Windy City - I Still Love You
TTITLE11=Windy city interlude... - Windy city interlude...
TTITLE12=EBony Rhythm Funk Campaign - You Got Me Rushin'
TTITLE13=Ebony Rhythm Funk Campaign - Giving Me Less Love
TTITLE14=Ebony Rhythm Funk Campaign - Where You Lead
TTITLE15=Ebony Rhythm Funk Campaign - Understanding
TTITLE16=Windy city interlude... - Windy city interlude...
TTITLE17=Magnum Force - Share My Love
TTITLE18=Magnum Force - Come Fly Away With Me
EXTD=
EXTT0=
EXTT1=
EXTT2=
EXTT3=
EXTT4=
EXTT5=
EXTT6=
EXTT7=
EXTT8=
EXTT9=
EXTT10=
EXTT11=
EXTT12=
EXTT13=
EXTT14=
EXTT15=
EXTT16=
EXTT17=
EXTT18=
PLAYORDER=
